<svg width="16" height="9" viewBox="0 0 16 9" fill="none" xmlns="http://www.w3.org/2000/svg">
<path d="M1.175 1.06457C1.3625 0.887491 1.5845 0.79895 1.841 0.79895C2.097 0.79895 2.31875 0.887491 2.50625 1.06457L8 6.25312L13.5125 1.04687C13.6875 0.881589 13.9062 0.79895 14.1687 0.79895C14.4312 0.79895 14.6562 0.887492 14.8437 1.06458C15.0312 1.24166 15.125 1.45133 15.125 1.69358C15.125 1.93535 15.0312 2.14478 14.8437 2.32187L8.525 8.27187C8.45 8.3427 8.36875 8.39299 8.28125 8.42274C8.19375 8.45202 8.1 8.46666 8 8.46666C7.9 8.46666 7.80625 8.45202 7.71875 8.42274C7.63125 8.39299 7.55 8.3427 7.475 8.27187L1.15625 2.30416C0.98125 2.13888 0.893749 1.93535 0.893749 1.69357C0.893749 1.45132 0.987499 1.24166 1.175 1.06457Z" fill="#707070"/>
</svg>
