<svg width="19" height="20" viewBox="0 0 19 20" fill="none" xmlns="http://www.w3.org/2000/svg">
<path d="M1.83333 18.3333C1.32917 18.3333 0.897416 18.154 0.538083 17.7952C0.179361 17.4359 0 17.0042 0 16.5V3.66667C0 3.1625 0.179361 2.73106 0.538083 2.37233C0.897416 2.013 1.32917 1.83333 1.83333 1.83333H2.75V0.916667C2.75 0.656944 2.83769 0.439083 3.01308 0.263083C3.18908 0.0876944 3.40694 0 3.66667 0C3.92639 0 4.14425 0.0876944 4.32025 0.263083C4.49564 0.439083 4.58333 0.656944 4.58333 0.916667V1.83333H11.9167V0.916667C11.9167 0.656944 12.0047 0.439083 12.1807 0.263083C12.3561 0.0876944 12.5736 0 12.8333 0C13.0931 0 13.3106 0.0876944 13.486 0.263083C13.662 0.439083 13.75 0.656944 13.75 0.916667V1.83333H14.6667C15.1708 1.83333 15.6026 2.013 15.9619 2.37233C16.3206 2.73106 16.5 3.1625 16.5 3.66667V9.16667H14.6667V7.33333H1.83333V16.5H8.25V18.3333H1.83333ZM1.83333 5.5H14.6667V3.66667H1.83333V5.5ZM17.5312 13.75L15.5833 11.8021L16.2479 11.1375C16.416 10.9694 16.6299 10.8854 16.8896 10.8854C17.1493 10.8854 17.3632 10.9694 17.5312 11.1375L18.1958 11.8021C18.3639 11.9701 18.4479 12.184 18.4479 12.4437C18.4479 12.7035 18.3639 12.9174 18.1958 13.0854L17.5312 13.75ZM10.0833 18.7917V17.6917C10.0833 17.5694 10.1062 17.4512 10.1521 17.3369C10.1979 17.222 10.2667 17.1187 10.3583 17.0271L14.9417 12.4437L16.8896 14.3917L12.3062 18.975C12.2146 19.0667 12.1116 19.1354 11.9973 19.1812C11.8824 19.2271 11.7639 19.25 11.6417 19.25H10.5417C10.4194 19.25 10.3125 19.2042 10.2208 19.1125C10.1292 19.0208 10.0833 18.9139 10.0833 18.7917Z" fill="#7E7E7E"/>
</svg>
