<svg width="24" height="24" viewBox="0 0 24 24" fill="none" xmlns="http://www.w3.org/2000/svg">
<path d="M12 1.16675C6.01677 1.16675 1.16669 6.01683 1.16669 12.0001C1.16669 17.9833 6.01677 22.8334 12 22.8334C17.9833 22.8334 22.8334 17.9833 22.8334 12.0001C22.8334 6.01683 17.9833 1.16675 12 1.16675Z" stroke="#64AFFF" stroke-width="1.5" stroke-linecap="round" stroke-linejoin="round"/>
<path d="M3.62695 18.8748C3.62695 18.8748 6.0417 15.7917 12 15.7917C17.9584 15.7917 20.3742 18.8748 20.3742 18.8748M12 12C12.862 12 13.6886 11.6576 14.2981 11.0481C14.9076 10.4386 15.25 9.61195 15.25 8.75C15.25 7.88805 14.9076 7.0614 14.2981 6.4519C13.6886 5.84241 12.862 5.5 12 5.5C11.1381 5.5 10.3114 5.84241 9.70194 6.4519C9.09245 7.0614 8.75004 7.88805 8.75004 8.75C8.75004 9.61195 9.09245 10.4386 9.70194 11.0481C10.3114 11.6576 11.1381 12 12 12Z" stroke="#64AFFF" stroke-width="1.5" stroke-linecap="round" stroke-linejoin="round"/>
</svg>
