<svg width="504" height="217" viewBox="0 0 504 217" fill="none" xmlns="http://www.w3.org/2000/svg">
<path d="M6.20428 213.586L-1.92585 225.434C-2.38118 226.098 -1.90606 227 -1.10129 227H506.733C507.289 227 507.739 226.546 507.733 225.989L505.298 0.5L493.936 111.23C493.824 112.317 492.299 112.463 491.983 111.416L487.997 98.2097C487.691 97.1928 486.219 97.2926 486.053 98.3416L480.336 134.278C480.179 135.264 478.834 135.437 478.433 134.523L476.118 129.252C476.096 129.203 476.079 129.153 476.066 129.101L469.239 102.777C468.99 101.818 467.648 101.765 467.325 102.702L458.274 128.936C458.219 129.095 458.125 129.238 458 129.351L450.083 136.53C449.527 137.035 448.633 136.769 448.444 136.042L438.947 99.6421C438.934 99.5928 438.925 99.5426 438.92 99.492L436.699 77.8888L430.072 33.1537C429.924 32.1566 428.561 31.9797 428.163 32.906L416.425 60.2663L404.248 99.5681L398.237 113.481C397.857 114.36 396.58 114.255 396.348 113.327L388.03 79.9672C387.824 79.1434 386.751 78.9343 386.251 79.6208L375.805 93.9735C375.775 94.0146 375.748 94.0579 375.725 94.103L362.208 120.262C361.747 121.155 360.405 120.886 360.323 119.884L355.474 60.3415C355.381 59.2033 353.76 59.0847 353.503 60.1972L342.367 108.321C342.166 109.189 341.016 109.381 340.544 108.626L336.033 101.402C335.581 100.679 334.49 100.817 334.231 101.629L326.302 126.573C326.02 127.461 324.783 127.514 324.425 126.653L317.822 110.739C317.803 110.695 317.788 110.649 317.776 110.602L313.583 94.0352L302.397 36.7596C302.187 35.6883 300.658 35.6793 300.436 36.7481L278.221 143.809C278.01 144.825 276.58 144.887 276.283 143.892L263.048 99.5681L256.226 68.5627C256.002 67.5469 254.569 67.505 254.287 68.5061L235.879 133.75C235.595 134.754 234.156 134.707 233.938 133.687L225.056 92.0451C224.853 91.0937 223.548 90.9629 223.161 91.8552L204.445 134.918C204.063 135.796 202.784 135.687 202.556 134.757L197.434 113.832C197.199 112.875 195.869 112.797 195.525 113.72L186.656 137.543C186.632 137.607 186.602 137.668 186.565 137.726L181.93 145.113C181.417 145.93 180.159 145.619 180.086 144.657L174.559 71.865C174.471 70.707 172.812 70.6042 172.581 71.7424L167.797 95.3915C167.587 96.4272 166.124 96.4724 165.851 95.4516L162.188 81.7604C161.919 80.7542 160.483 80.7785 160.248 81.7931L153.557 110.672L142.019 147.587C141.999 147.652 141.985 147.72 141.979 147.788L139.905 169.097C139.801 170.162 138.322 170.342 137.966 169.332L124.411 130.827C124.155 130.097 123.203 129.923 122.704 130.513L109.509 146.136C108.974 146.769 107.944 146.514 107.768 145.704L104.181 129.251C104.171 129.203 104.164 129.154 104.16 129.105L100.833 79.3271C100.756 78.1796 99.1205 78.0476 98.8607 79.168L91.5786 110.582C91.5647 110.642 91.5452 110.701 91.5203 110.757L79.7374 137.639L70.112 159.382C70.0884 159.435 70.0694 159.491 70.0555 159.548L67.7307 168.983C67.4719 170.033 65.9614 169.982 65.7747 168.916L62.5976 150.78C62.4294 149.82 61.127 149.643 60.7091 150.524L49.8097 173.498C49.7791 173.562 49.7416 173.623 49.6979 173.68L43.1278 182.195C42.9384 182.44 42.646 182.584 42.336 182.584H36.2331C35.836 182.584 35.4764 182.819 35.3171 183.183L24.4251 208.053C24.3033 208.331 24.0618 208.539 23.7686 208.618L6.76934 213.186C6.53937 213.247 6.33901 213.389 6.20428 213.586Z" fill="url(#paint0_linear_107_1299)" stroke="#0094FF" stroke-width="1.1"/>
<defs>
<linearGradient id="paint0_linear_107_1299" x1="250.415" y1="25" x2="250.415" y2="214.985" gradientUnits="userSpaceOnUse">
<stop stop-color="#0094FF" stop-opacity="0"/>
<stop offset="1" stop-color="#00A3FF" stop-opacity="0.23"/>
</linearGradient>
</defs>
</svg>
