<svg width="19" height="18" viewBox="0 0 19 18" fill="none" xmlns="http://www.w3.org/2000/svg">
<g opacity="0.9" clip-path="url(#clip0_136_12)">
<path d="M6.67793 16.9468V13.0759L3.77828 15.2077C4.59469 15.9651 5.58 16.5541 6.67793 16.9468ZM12.3083 16.9468C13.4062 16.5541 14.3916 15.9651 15.208 15.2077L12.3083 13.0479V16.9468ZM1.52612 11.8137C1.61058 12.0942 1.72319 12.3466 1.86395 12.6271L2.96187 11.8137H1.52612ZM16.0244 11.8137L17.1223 12.6271C17.2349 12.3747 17.3475 12.0942 17.4601 11.8137H16.0244Z" fill="#2E3192"/>
<path d="M7.10031 10.6917H1.21655C1.30101 11.0844 1.41362 11.4491 1.52622 11.8137H2.96197L1.86405 12.6271C2.08926 13.104 2.34263 13.5247 2.6523 13.9455L5.55195 11.8137H6.67803V12.3747L3.38425 14.787L3.77838 15.1797L6.67803 13.0759V16.9468C7.04401 17.0871 7.40998 17.1712 7.80411 17.2554V10.6917H7.10031ZM17.7699 10.6917H11.1823V17.2554C11.5765 17.1712 11.9424 17.059 12.3084 16.9468V13.0759L15.2081 15.1797C15.6022 14.815 15.94 14.4223 16.2778 14.0016L13.2656 11.8137H15.1799L16.8972 13.0759C16.9816 12.9357 17.0661 12.7674 17.1224 12.6271L16.0245 11.8137H17.4602C17.5728 11.4491 17.6854 11.0844 17.7699 10.6917Z" fill="white"/>
<path d="M2.65234 13.9455C2.87756 14.254 3.10278 14.5345 3.35614 14.815L6.67807 12.4027V11.8417H5.552L2.65234 13.9455ZM13.2938 11.8137L16.306 14.0016C16.4187 13.8613 16.5031 13.7211 16.6157 13.5808C16.6439 13.5528 16.6439 13.5247 16.672 13.5247C16.7565 13.3845 16.8691 13.2162 16.9535 13.0759L15.18 11.8137H13.2938Z" fill="#ED4C5C"/>
<path d="M12.3083 1.07065V4.94151L15.208 2.80973C14.3916 2.05239 13.4062 1.46334 12.3083 1.07065ZM6.67793 1.07065C5.58 1.46334 4.59469 2.05239 3.77828 2.80973L6.67793 4.96956V1.07065ZM17.4601 6.20375C17.3757 5.92325 17.2631 5.67081 17.1223 5.39031L16.0244 6.20375H17.4601ZM2.96187 6.20375L1.86395 5.39031C1.75134 5.67081 1.63873 5.92325 1.52612 6.20375H2.96187Z" fill="#2E3192"/>
<path d="M11.8861 7.32573H17.7417C17.6573 6.93303 17.5447 6.56838 17.4321 6.20374H15.9963L17.0943 5.39029C16.869 4.91345 16.6157 4.4927 16.306 4.07195L13.4345 6.20374H12.3084V5.64274L15.6022 3.23046L15.2081 2.83777L12.3084 4.9415V1.07063C11.9424 0.930383 11.5765 0.846234 11.1823 0.762085V7.32573H11.8861ZM1.21655 7.32573H7.80411V0.762085C7.40998 0.846234 7.04401 0.958433 6.67803 1.07063V4.9415L3.77838 2.83777C3.38425 3.20241 3.04643 3.59511 2.70861 4.01586L5.72087 6.20374H3.80653L2.08926 4.9415C2.00481 5.08175 1.92035 5.25004 1.86405 5.39029L2.96197 6.20374H1.52622C1.41362 6.56838 1.30101 6.93303 1.21655 7.32573Z" fill="white"/>
<path d="M16.3341 4.07197C16.1089 3.76342 15.8836 3.48292 15.6303 3.20242L12.3083 5.6147V6.1757H13.4344L16.3341 4.07197ZM5.69264 6.20375L2.70853 4.01587C2.59592 4.15611 2.51147 4.29636 2.39886 4.43661C2.37071 4.46466 2.37071 4.49271 2.34255 4.49271C2.2581 4.63296 2.14549 4.80126 2.06104 4.94151L3.7783 6.20375H5.69264Z" fill="#ED4C5C"/>
<path d="M17.7699 7.32575H11.1823V0.76211C10.6474 0.649911 10.0844 0.593811 9.49319 0.593811C8.902 0.593811 8.33896 0.649911 7.80408 0.76211V7.32575H1.21652C1.10391 7.8587 1.04761 8.41969 1.04761 9.00874C1.04761 9.59778 1.10391 10.1588 1.21652 10.6917H7.80408V17.2554C8.33896 17.3676 8.902 17.4237 9.49319 17.4237C10.0844 17.4237 10.6474 17.3676 11.1823 17.2554V10.6917H17.7699C17.8825 10.1588 17.9388 9.59778 17.9388 9.00874C17.9388 8.41969 17.8825 7.8587 17.7699 7.32575Z" fill="#ED4C5C"/>
</g>
<defs>
<clipPath id="clip0_136_12">
<rect width="18.0173" height="17.9518" fill="white" transform="translate(0.484619 0.0328064)"/>
</clipPath>
</defs>
</svg>
