<svg width="28" height="28" viewBox="0 0 28 28" fill="none" xmlns="http://www.w3.org/2000/svg">
<path d="M2.86871 12.7568C3.09706 10.7131 3.88359 8.77173 5.1421 7.1454C6.40062 5.51907 8.08254 4.27058 10.0036 3.53674C11.9246 2.80289 14.0105 2.61203 16.0328 2.98507C18.0551 3.35811 19.9357 4.28065 21.4684 5.65158C23.0012 7.02251 24.127 8.78893 24.7224 10.7572C25.3178 12.7256 25.3599 14.8198 24.8441 16.8105C24.3283 18.8011 23.2744 20.6114 21.798 22.0428C20.3215 23.4742 18.4796 24.4716 16.4739 24.9256C16.7299 24.5225 16.8408 24.0441 16.7884 23.5694C16.7359 23.0948 16.5233 22.6522 16.1855 22.3146L16.1715 22.3006C16.4224 21.9286 16.6424 21.5367 16.8295 21.1288C17.1582 20.4113 17.4207 19.6653 17.6135 18.9H13.6417C13.7985 18.4548 13.9077 17.9858 13.9623 17.5H17.9103C18.1054 16.3436 18.2023 15.1728 18.2001 14C18.2001 12.7638 18.0979 11.585 17.9117 10.5H10.0885C10.0634 10.6467 10.0401 10.7937 10.0185 10.941C9.58069 10.7675 9.12466 10.644 8.65911 10.5728L8.67031 10.5H4.84411C4.73937 10.7734 4.64688 11.0514 4.56691 11.333C3.92011 11.704 3.34471 12.187 2.86871 12.7568ZM16.8309 6.87121C15.9699 5.02601 14.9199 4.20001 14.0001 4.20001C13.0803 4.20001 12.0303 5.02601 11.1693 6.87121C10.8416 7.5888 10.5801 8.33484 10.3881 9.10001H17.6149C17.4221 8.33473 17.1596 7.58869 16.8309 6.87121ZM8.94471 9.10001C9.19111 8.05981 9.51451 7.10921 9.90091 6.27901C10.1613 5.72041 10.4623 5.19681 10.7997 4.73481C8.56983 5.50782 6.69245 7.05723 5.51051 9.10001H8.94471ZM22.4897 18.9H19.0541C18.8317 19.8703 18.5113 20.8155 18.0979 21.721C17.8488 22.2635 17.5478 22.7807 17.1991 23.2652C19.429 22.4922 21.3078 20.9428 22.4897 18.9ZM19.3299 17.5H23.1561C23.5719 16.4136 23.8001 15.232 23.8001 14C23.8001 12.768 23.5719 11.5864 23.1561 10.5H19.3299C19.5063 11.6032 19.6001 12.782 19.6001 14C19.6001 15.218 19.5063 16.3968 19.3299 17.5ZM22.4897 9.10001C21.3079 7.05715 19.4305 5.50771 17.2005 4.73481C17.5379 5.19681 17.8389 5.72041 18.0993 6.27901C18.4857 7.10921 18.8091 8.05981 19.0555 9.10001H22.4897ZM11.6257 19.7344C12.3676 18.7423 12.7061 17.506 12.5732 16.2743C12.4403 15.0426 11.8458 13.907 10.9094 13.096C9.9729 12.285 8.76401 11.8588 7.52598 11.9032C6.28795 11.9475 5.11268 12.4592 4.23669 13.3352C3.36071 14.2112 2.84904 15.3864 2.80466 16.6245C2.76028 17.8625 3.18649 19.0714 3.9975 20.0079C4.80851 20.9443 5.94413 21.5388 7.17581 21.6717C8.40748 21.8046 9.64379 21.4661 10.6359 20.7242L14.2059 24.2942C14.3379 24.4217 14.5148 24.4923 14.6983 24.4907C14.8818 24.4891 15.0574 24.4155 15.1872 24.2857C15.317 24.1559 15.3906 23.9803 15.3922 23.7968C15.3938 23.6133 15.3232 23.4364 15.1957 23.3044L11.6257 19.7344ZM11.2001 16.8C11.2001 17.7283 10.8314 18.6185 10.175 19.2749C9.51861 19.9313 8.62837 20.3 7.70011 20.3C6.77185 20.3 5.88162 19.9313 5.22524 19.2749C4.56886 18.6185 4.20011 17.7283 4.20011 16.8C4.20011 15.8718 4.56886 14.9815 5.22524 14.3251C5.88162 13.6688 6.77185 13.3 7.70011 13.3C8.62837 13.3 9.51861 13.6688 10.175 14.3251C10.8314 14.9815 11.2001 15.8718 11.2001 16.8Z" fill="#7E7E7E"/>
</svg>
