<svg width="24" height="22" viewBox="0 0 24 22" fill="none" xmlns="http://www.w3.org/2000/svg">
<path d="M12 21.2812C11.8886 21.2795 11.7794 21.2494 11.6828 21.1937C11.5625 21.1391 8.85 19.5969 6.09375 17.125C2.32031 13.7234 0.406252 10.3437 0.406252 7.0625C0.40526 5.70491 0.83981 4.38282 1.64603 3.29055C2.45224 2.19829 3.58759 1.39347 4.8852 0.994391C6.1828 0.595317 7.5742 0.623043 8.85487 1.07349C10.1355 1.52394 11.2379 2.37335 12 3.49687C12.7621 2.37335 13.8645 1.52394 15.1451 1.07349C16.4258 0.623043 17.8172 0.595317 19.1148 0.994391C20.4124 1.39347 21.5478 2.19829 22.354 3.29055C23.1602 4.38282 23.5947 5.70491 23.5938 7.0625C23.5938 10.3437 21.6797 13.7234 17.9062 17.125C15.15 19.5969 12.4375 21.1391 12.3172 21.1937C12.2206 21.2494 12.1114 21.2795 12 21.2812ZM6.75 2.03125C5.41563 2.03125 4.13591 2.56132 3.19237 3.50487C2.24883 4.44841 1.71875 5.72813 1.71875 7.0625C1.71875 13.3297 10.2281 18.7984 12 19.8594C13.7719 18.7984 22.2812 13.3297 22.2812 7.0625C22.2838 5.89751 21.882 4.76774 21.1444 3.866C20.4068 2.96425 19.3791 2.34643 18.2367 2.11795C17.0944 1.88948 15.9081 2.06452 14.8804 2.6132C13.8527 3.16189 13.0473 4.05021 12.6016 5.12656C12.5545 5.24783 12.4718 5.35204 12.3645 5.42552C12.2571 5.49899 12.1301 5.53831 12 5.53831C11.8699 5.53831 11.7429 5.49899 11.6355 5.42552C11.5282 5.35204 11.4455 5.24783 11.3984 5.12656C11.016 4.20917 10.3704 3.4256 9.54312 2.87473C8.71583 2.32385 7.74392 2.03035 6.75 2.03125Z" fill="#64AEFF"/>
</svg>
