<svg width="22" height="25" viewBox="0 0 22 25" fill="none" xmlns="http://www.w3.org/2000/svg">
<path d="M20.9641 17.3484C20.2969 16.2109 19.5094 14.0562 19.5094 10.25V9.47344C19.5094 4.74844 15.725 0.876563 11.0656 0.84375H11C9.88071 0.843746 8.7724 1.06457 7.73856 1.49357C6.70473 1.92258 5.76569 2.55133 4.97524 3.34382C4.18478 4.1363 3.55844 5.07695 3.13209 6.11189C2.70575 7.14682 2.48777 8.25569 2.49065 9.375V10.25C2.49065 14.0562 1.70315 16.2109 1.03596 17.3484C0.899523 17.5825 0.827637 17.8486 0.827637 18.1195C0.827637 18.3905 0.899523 18.6565 1.03596 18.8906C1.16751 19.1253 1.35981 19.3202 1.59268 19.4549C1.82555 19.5896 2.09039 19.6592 2.3594 19.6562H6.84377V19.875C6.84377 20.9773 7.28166 22.0345 8.06111 22.8139C8.84056 23.5934 9.89771 24.0312 11 24.0312C12.1023 24.0312 13.1595 23.5934 13.9389 22.8139C14.7184 22.0345 15.1563 20.9773 15.1563 19.875V19.6562H19.6406C19.9097 19.6592 20.1745 19.5896 20.4074 19.4549C20.6402 19.3202 20.8325 19.1253 20.9641 18.8906C21.1005 18.6565 21.1724 18.3905 21.1724 18.1195C21.1724 17.8486 21.1005 17.5825 20.9641 17.3484ZM13.8438 19.875C13.8438 20.6292 13.5442 21.3525 13.0109 21.8858C12.4775 22.4191 11.7542 22.7188 11 22.7188C10.2458 22.7188 9.52249 22.4191 8.98919 21.8858C8.45588 21.3525 8.15627 20.6292 8.15627 19.875V19.6562H13.8438V19.875ZM19.8266 18.2344C19.8096 18.2687 19.783 18.2974 19.7499 18.3168C19.7169 18.3362 19.6789 18.3456 19.6406 18.3438H2.3594C2.32112 18.3456 2.28314 18.3362 2.25011 18.3168C2.21708 18.2974 2.19044 18.2687 2.17346 18.2344C2.15426 18.2011 2.14415 18.1634 2.14415 18.125C2.14415 18.0866 2.15426 18.0489 2.17346 18.0156C2.91721 16.725 3.80315 14.3406 3.80315 10.25V9.375C3.80171 8.42846 3.98672 7.4909 4.34762 6.61586C4.70852 5.74081 5.23824 4.94542 5.90653 4.2751C6.57482 3.60478 7.3686 3.07265 8.24254 2.7091C9.11648 2.34554 10.0535 2.15769 11 2.15625H11.0547C14.9922 2.17813 18.1969 5.47031 18.1969 9.47344V10.25C18.1969 14.3406 19.0828 16.725 19.8266 18.0156C19.8458 18.0489 19.8559 18.0866 19.8559 18.125C19.8559 18.1634 19.8458 18.2011 19.8266 18.2344Z" fill="#64AEFF"/>
</svg>
