<svg width="113" height="71" viewBox="0 0 113 71" fill="none" xmlns="http://www.w3.org/2000/svg">
<g clip-path="url(#clip0_107_1377)">
<g clip-path="url(#clip1_107_1377)">
<g clip-path="url(#clip2_107_1377)">
<g clip-path="url(#clip3_107_1377)">
<g clip-path="url(#clip4_107_1377)">
<g clip-path="url(#clip5_107_1377)">
<g clip-path="url(#clip6_107_1377)">
<path d="M21.5505 29.5742H26.16C27.019 29.5742 27.7606 29.7245 28.3849 30.025C29.0068 30.3255 29.4931 30.7522 29.844 31.3051C30.1948 31.858 30.3702 32.5252 30.3702 33.3065C30.3702 34.0758 30.1948 34.7393 29.844 35.297C29.4931 35.8571 29.0068 36.2875 28.3849 36.588C27.7606 36.8885 27.019 37.0387 26.16 37.0387H23.4923V41.4742H21.5505V29.5742ZM23.4923 35.3799H25.8515C26.7105 35.3799 27.3432 35.202 27.7497 34.8462C28.1538 34.4929 28.3559 33.9796 28.3559 33.3065C28.3559 32.6213 28.1538 32.1008 27.7497 31.7451C27.3432 31.3917 26.7105 31.215 25.8515 31.215H23.4923V35.3799ZM34.5986 41.4742H32.6568V32.459H34.3083L34.4897 34.0818C34.7317 33.4928 35.091 33.0444 35.5677 32.7367C36.0468 32.4314 36.6372 32.2787 37.3389 32.2787C37.5204 32.2787 37.7018 32.2932 37.8833 32.322C38.0648 32.3533 38.216 32.3989 38.337 32.459L38.0648 34.1539C37.9317 34.1058 37.7829 34.0661 37.6184 34.0349C37.4562 34.006 37.2361 33.9916 36.9578 33.9916C36.5827 33.9916 36.2137 34.0902 35.8508 34.2873C35.4878 34.4868 35.1878 34.7849 34.9507 35.1816C34.716 35.5783 34.5986 36.0831 34.5986 36.6961V41.4742ZM44.1079 32.2787C44.9911 32.2787 45.7714 32.4651 46.449 32.8377C47.1265 33.2103 47.6552 33.7476 48.035 34.4496C48.4174 35.154 48.6085 35.993 48.6085 36.9666C48.6085 37.9402 48.4174 38.778 48.035 39.48C47.6552 40.1844 47.1265 40.7229 46.449 41.0955C45.7714 41.4681 44.9911 41.6545 44.1079 41.6545C43.2247 41.6545 42.4432 41.4681 41.7633 41.0955C41.0882 40.7229 40.5571 40.1844 40.1699 39.48C39.7803 38.778 39.5856 37.9402 39.5856 36.9666C39.5856 35.993 39.7803 35.154 40.1699 34.4496C40.5571 33.7476 41.0882 33.2103 41.7633 32.8377C42.4432 32.4651 43.2247 32.2787 44.1079 32.2787ZM44.1079 33.7933C43.5635 33.7933 43.1001 33.9159 42.7178 34.1611C42.3379 34.4087 42.0452 34.7669 41.8395 35.2357C41.6338 35.7045 41.531 36.2815 41.531 36.9666C41.531 37.6397 41.6338 38.2131 41.8395 38.6867C42.0452 39.1627 42.3379 39.5233 42.7178 39.7685C43.1001 40.0161 43.5635 40.1399 44.1079 40.1399C44.6523 40.1399 45.1109 40.0161 45.4835 39.7685C45.861 39.5233 46.1525 39.1627 46.3582 38.6867C46.5615 38.2131 46.6631 37.6397 46.6631 36.9666C46.6631 36.2815 46.5615 35.7045 46.3582 35.2357C46.1525 34.7669 45.861 34.4087 45.4835 34.1611C45.1109 33.9159 44.6523 33.7933 44.1079 33.7933ZM50.093 29.5742H60.2374V31.233H56.1361V41.4742H54.1943V31.233H50.093V29.5742ZM66.2806 41.6545C65.3732 41.6545 64.5747 41.4681 63.8851 41.0955C63.1955 40.7229 62.6607 40.1844 62.2809 39.48C61.8986 38.778 61.7074 37.9402 61.7074 36.9666C61.7074 35.993 61.8986 35.154 62.2809 34.4496C62.6607 33.7476 63.1894 33.2103 63.867 32.8377C64.5445 32.4651 65.3127 32.2787 66.1717 32.2787C67.0549 32.2787 67.805 32.459 68.422 32.8197C69.039 33.1803 69.5108 33.6731 69.8375 34.2981C70.1642 34.9232 70.3275 35.6324 70.3275 36.4257C70.3275 36.6421 70.3214 36.8464 70.3093 37.0387C70.2972 37.231 70.2791 37.3993 70.2549 37.5436H62.9596V36.0651H69.402L68.4401 36.3536C68.4401 35.5362 68.2345 34.9076 67.8231 34.4676C67.4118 34.0301 66.8492 33.8113 66.1354 33.8113C65.6152 33.8113 65.1615 33.9315 64.7743 34.1719C64.3872 34.4123 64.0908 34.7693 63.8851 35.2429C63.6794 35.7189 63.5766 36.2995 63.5766 36.9846C63.5766 37.6578 63.6855 38.2287 63.9032 38.6975C64.121 39.1663 64.4295 39.5209 64.8288 39.7613C65.228 40.0017 65.6999 40.1219 66.2443 40.1219C66.8492 40.1219 67.3392 40.0077 67.7142 39.7793C68.0893 39.5509 68.3857 39.2324 68.6035 38.8237L70.146 39.5449C69.9282 39.9776 69.6354 40.3527 69.2677 40.67C68.8974 40.9897 68.4583 41.2337 67.9501 41.402C67.442 41.5703 66.8855 41.6545 66.2806 41.6545ZM76.6973 32.2787C77.4232 32.2787 78.0426 32.3833 78.5556 32.5925C79.071 32.804 79.5041 33.1021 79.8549 33.4868C80.2058 33.8714 80.472 34.3101 80.6534 34.803L78.8205 35.5242C78.6632 34.9713 78.4116 34.5469 78.0656 34.2513C77.722 33.958 77.2719 33.8113 76.7154 33.8113C76.171 33.8113 75.7052 33.9339 75.318 34.1791C74.9309 34.4267 74.6369 34.7849 74.4361 35.2537C74.2377 35.7225 74.1385 36.2995 74.1385 36.9846C74.1385 37.6578 74.2413 38.2287 74.447 38.6975C74.6526 39.1663 74.949 39.5209 75.3362 39.7613C75.7233 40.0017 76.1831 40.1219 76.7154 40.1219C77.1268 40.1219 77.4837 40.0522 77.7861 39.9127C78.0886 39.7757 78.339 39.5774 78.5374 39.3177C78.7383 39.0605 78.875 38.7456 78.9476 38.373L80.7079 38.968C80.5385 39.5089 80.2747 39.98 79.9166 40.3815C79.5609 40.7854 79.1169 41.0979 78.5846 41.3191C78.0523 41.5427 77.4413 41.6545 76.7517 41.6545C75.8564 41.6545 75.064 41.4681 74.3744 41.0955C73.6848 40.7229 73.1488 40.1844 72.7665 39.48C72.3866 38.778 72.1967 37.9402 72.1967 36.9666C72.1967 35.993 72.3866 35.154 72.7665 34.4496C73.1488 33.7476 73.6811 33.2103 74.3635 32.8377C75.0483 32.4651 75.8262 32.2787 76.6973 32.2787ZM84.9181 41.4742H82.9763V28.4023H84.9181V33.9015C85.2206 33.3365 85.6283 32.9242 86.1412 32.6646C86.6566 32.4074 87.2289 32.2787 87.858 32.2787C88.4992 32.2787 89.0763 32.4014 89.5893 32.6466C90.1047 32.8942 90.5136 33.2644 90.816 33.7572C91.1185 34.25 91.2697 34.8751 91.2697 35.6324V41.4742H89.3279V36.2454C89.3279 35.3559 89.1428 34.7369 88.7726 34.3883C88.4048 34.0397 87.9427 33.8654 87.3862 33.8654C86.999 33.8654 86.6143 33.958 86.232 34.1431C85.8521 34.3306 85.5375 34.6323 85.2883 35.0482C85.0415 35.4617 84.9181 36.017 84.9181 36.7142V41.4742Z" fill="#0094FF"/>
</g>
</g>
</g>
</g>
</g>
</g>
</g>
<path d="M53.8345 23.1735V9.3831L9.44214 9.38309L9.44216 60.6736H53.8345V45.1896H52.6316V59.4784H10.645L10.645 10.5782L28.0223 10.5782H52.6316V23.1735H53.8345Z" stroke="#0094FF" stroke-width="1.4"/>
<defs>
<clipPath id="clip0_107_1377">
<rect width="69.7228" height="13.2522" fill="white" transform="translate(21.5486 28.4023)"/>
</clipPath>
<clipPath id="clip1_107_1377">
<rect width="69.7228" height="13.2522" fill="white" transform="translate(21.5486 28.4023)"/>
</clipPath>
<clipPath id="clip2_107_1377">
<rect width="69.7228" height="13.2522" fill="white" transform="translate(21.5486 28.4023)"/>
</clipPath>
<clipPath id="clip3_107_1377">
<rect width="69.7228" height="13.2522" fill="white" transform="translate(21.5486 28.4023)"/>
</clipPath>
<clipPath id="clip4_107_1377">
<rect width="69.7228" height="13.2522" fill="white" transform="translate(21.5486 28.4023)"/>
</clipPath>
<clipPath id="clip5_107_1377">
<rect width="69.7228" height="13.2522" fill="white" transform="translate(21.5486 28.4023)"/>
</clipPath>
<clipPath id="clip6_107_1377">
<rect width="69.7228" height="13.2522" fill="white" transform="translate(21.5486 28.4023)"/>
</clipPath>
</defs>
</svg>
