<svg width="47" height="34" viewBox="0 0 47 34" fill="none" xmlns="http://www.w3.org/2000/svg">
<g clip-path="url(#clip0_107_752)">
<path d="M19.5024 4.54228C20.9257 3.0053 22.9275 2.03253 25.1594 1.99357C28.1267 1.94178 30.7442 3.55251 32.1656 5.98664C33.3891 5.41386 34.7198 5.10642 36.0704 5.08446C41.4219 4.99105 45.8369 9.29521 45.9312 14.698C46.0255 20.1014 41.7634 24.5572 36.4119 24.6506C35.7709 24.6621 35.1304 24.6095 34.4999 24.4934C33.3236 26.6819 31.0359 28.1864 28.3806 28.2328C27.3068 28.2529 26.2426 28.0272 25.2692 27.5731C24.0891 30.4916 21.2573 32.5731 17.9155 32.6314C14.4356 32.6922 11.4315 30.5401 10.239 27.4693C9.74344 27.5838 9.22891 27.6479 8.70007 27.6571C4.55683 27.7294 1.13853 24.3918 1.06539 20.2015C1.03922 18.8736 1.36124 17.5621 1.99933 16.3976C2.63743 15.233 3.56933 14.2562 4.70216 13.5645C4.20781 12.4778 3.9426 11.3009 3.92311 10.1071C3.83899 5.28812 7.67976 1.31352 12.5014 1.22936C15.3321 1.17995 17.8712 2.48307 19.5024 4.54228Z" fill="#00A1E0"/>
<path d="M7.53297 17.6495C7.50614 17.7237 7.54472 17.7383 7.55409 17.7512C7.63952 17.8111 7.72606 17.8538 7.81339 17.9015C8.27619 18.1371 8.71014 18.2008 9.16288 18.1929C10.0849 18.1768 10.6488 17.6761 10.635 16.8857L10.6347 16.8704C10.6219 16.1399 9.97124 15.8858 9.36154 15.705L9.28235 15.6805C8.82262 15.5398 8.42599 15.4187 8.42074 15.1174L8.42046 15.1015C8.41596 14.8438 8.64306 14.65 9.00037 14.6438C9.3974 14.6368 9.8709 14.7605 10.1774 14.9232C10.1774 14.9232 10.2673 14.9794 10.2985 14.8923C10.3156 14.8459 10.462 14.4293 10.4774 14.3842C10.4937 14.3351 10.4624 14.2998 10.4307 14.2812C10.0806 14.0761 9.5992 13.9404 9.10357 13.9491L9.01132 13.9514C8.16752 13.9661 7.58729 14.4865 7.60006 15.2177L7.60032 15.233C7.61378 16.004 8.26808 16.2424 8.87994 16.4061L8.97854 16.4347C9.42452 16.5632 9.80901 16.6739 9.81447 16.9866L9.81474 17.0019C9.81973 17.2878 9.57492 17.5049 9.17403 17.5119C9.01849 17.5147 8.52227 17.5201 7.9803 17.1904C7.91497 17.1537 7.8767 17.1269 7.82626 17.0977C7.79961 17.0814 7.73337 17.0536 7.70607 17.1413L7.53297 17.6495ZM21.0309 17.4139C21.0041 17.4881 21.0427 17.5027 21.052 17.5156C21.1375 17.5755 21.224 17.6181 21.3113 17.6659C21.774 17.9015 22.2081 17.9652 22.6608 17.9573C23.5828 17.9412 24.1467 17.4404 24.1329 16.6501L24.1326 16.6348C24.1199 15.9043 23.4692 15.6502 22.8595 15.4694L22.7803 15.4449C22.3206 15.3042 21.9238 15.1831 21.9185 14.8817L21.9182 14.8659C21.9137 14.6082 22.141 14.4144 22.4983 14.4082C22.8953 14.4012 23.3688 14.5249 23.6753 14.6876C23.6753 14.6876 23.7652 14.7438 23.7964 14.6567C23.8135 14.6103 23.9599 14.1937 23.9751 14.1485C23.9917 14.0995 23.9603 14.0642 23.9285 14.0456C23.5786 13.8405 23.097 13.7048 22.6015 13.7135L22.5093 13.7158C21.6653 13.7305 21.0852 14.2509 21.098 14.9821L21.0983 14.9974C21.1117 15.7684 21.7658 16.0068 22.3779 16.1705L22.4763 16.199C22.9225 16.3276 23.3075 16.4383 23.3129 16.751L23.3132 16.7663C23.3182 17.0522 23.0727 17.2693 22.672 17.2763C22.2514 17.2867 21.8368 17.175 21.4782 16.9548C21.4129 16.9181 21.374 16.8925 21.3249 16.8621C21.308 16.8515 21.2293 16.8226 21.2038 16.9057L21.0309 17.4139ZM30.2185 15.7053C30.2263 16.1521 30.1492 16.5054 29.9897 16.7568C29.832 17.0058 29.5889 17.1297 29.2468 17.1357C28.9043 17.1417 28.6583 17.0269 28.4946 16.7829C28.3289 16.5377 28.2408 16.1868 28.233 15.74C28.2253 15.2941 28.301 14.9414 28.4581 14.6926C28.6132 14.4462 28.8551 14.3234 29.1977 14.3174C29.5397 14.3115 29.7867 14.4258 29.9537 14.6664C30.1215 14.9098 30.2108 15.2594 30.2185 15.7053ZM30.9737 14.8639C30.8937 14.6097 30.772 14.3862 30.6118 14.2011C30.4515 14.0154 30.2505 13.8678 30.0128 13.7616C29.776 13.6562 29.4971 13.6052 29.1853 13.6107C28.8728 13.6161 28.5959 13.6767 28.3629 13.7904C28.1293 13.9047 27.9333 14.0594 27.7791 14.2505C27.6262 14.4417 27.5122 14.6694 27.4405 14.9256C27.3701 15.1814 27.3373 15.4602 27.3425 15.7555C27.3476 16.051 27.3901 16.3292 27.4694 16.5815C27.5502 16.8352 27.6711 17.0587 27.8321 17.2445C27.9962 17.4331 28.2009 17.5821 28.4308 17.6801C28.6681 17.7831 28.9464 17.8326 29.2589 17.8272C29.5707 17.8217 29.8471 17.7624 30.0807 17.6513C30.3071 17.5453 30.5066 17.3893 30.664 17.1951C30.8177 17.0045 30.9315 16.7769 31.0026 16.5198C31.0738 16.2642 31.1067 15.9849 31.1015 15.6899C31.0964 15.3953 31.0537 15.1171 30.9737 14.8639ZM37.3307 16.8755C37.3039 16.801 37.232 16.8304 37.232 16.8304C37.1208 16.8753 37.0023 16.9171 36.8759 16.9392C36.7366 16.9624 36.5957 16.9749 36.4545 16.9766C36.0819 16.9831 35.784 16.8775 35.5682 16.662C35.3519 16.4466 35.2265 16.0944 35.2194 15.6149C35.2132 15.1786 35.3126 14.8485 35.497 14.5953C35.6803 14.3435 35.9635 14.211 36.3446 14.2043C36.6622 14.1988 36.9048 14.231 37.1598 14.3067C37.1598 14.3067 37.2211 14.3321 37.2485 14.2519C37.3124 14.0637 37.3601 13.9288 37.4283 13.7219C37.4476 13.6632 37.3973 13.6391 37.3792 13.6324C37.2787 13.595 37.0419 13.5357 36.8634 13.5119C36.6965 13.4893 36.5017 13.4791 36.2852 13.4829C35.9618 13.4885 35.6747 13.5486 35.4301 13.6632C35.1861 13.7771 34.9801 13.932 34.8182 14.1233C34.6563 14.3144 34.5347 14.5422 34.4553 14.7988C34.3765 15.0546 34.3392 15.3348 34.3443 15.6301C34.3555 16.269 34.5367 16.7826 34.8832 17.1547C35.2305 17.5281 35.7456 17.712 36.4126 17.7004C36.807 17.6935 37.2104 17.6064 37.4989 17.4866C37.4989 17.4866 37.5543 17.4587 37.5289 17.3944L37.3307 16.8755ZM38.6475 15.1303C38.6795 14.8816 38.7445 14.6741 38.8473 14.5115C39.0024 14.2645 39.2433 14.1263 39.5854 14.1203C39.9272 14.1143 40.1556 14.2449 40.3219 14.4857C40.4322 14.6446 40.4827 14.8591 40.5054 15.0978L38.6475 15.1303ZM41.2291 14.5398C41.1594 14.2941 40.993 14.0477 40.8849 13.9356C40.7139 13.7577 40.5479 13.6342 40.3839 13.5667C40.146 13.4706 39.8911 13.4236 39.6346 13.4285C39.3095 13.4341 39.0152 13.4938 38.7778 13.6106C38.5396 13.7277 38.3406 13.885 38.1857 14.0794C38.0309 14.2731 37.9159 14.5027 37.8448 14.7623C37.773 15.0204 37.7396 15.3013 37.7447 15.5966C37.75 15.8973 37.7946 16.1764 37.8777 16.4269C37.9614 16.6794 38.0922 16.9009 38.2672 17.0829C38.4413 17.2664 38.664 17.4087 38.9296 17.506C39.1933 17.6027 39.5123 17.6498 39.8778 17.6427C40.6302 17.6269 41.0238 17.4522 41.1853 17.3589C41.2138 17.3426 41.2409 17.3138 41.2049 17.2337L41.0263 16.7592C40.9995 16.6884 40.9276 16.7161 40.9276 16.7161C40.7425 16.7885 40.4796 16.9175 39.8617 16.927C39.4576 16.9334 39.1558 16.8193 38.9651 16.6362C38.7689 16.4487 38.67 16.1698 38.6464 15.7739L41.2518 15.7309C41.2518 15.7309 41.3203 15.7285 41.3262 15.6617C41.3282 15.6335 41.4065 15.1243 41.2291 14.5398ZM17.7824 15.4945C17.8152 15.2458 17.8794 15.0383 17.9824 14.8757C18.1376 14.6287 18.3785 14.4905 18.7203 14.4845C19.0623 14.4785 19.2907 14.6091 19.4575 14.8499C19.5674 15.0088 19.6179 15.2233 19.6405 15.462L17.7824 15.4945ZM20.3635 14.904C20.2938 14.6583 20.1281 14.4119 20.0198 14.2998C19.849 14.1219 19.6828 13.9984 19.519 13.9309C19.2811 13.8348 19.0263 13.7878 18.7698 13.7927C18.4451 13.7983 18.1503 13.858 17.9129 13.9748C17.6746 14.0919 17.4757 14.2492 17.3209 14.4436C17.166 14.6373 17.051 14.8669 16.9799 15.1265C16.9088 15.3846 16.8747 15.6655 16.8799 15.9608C16.8851 16.2615 16.9295 16.5406 17.0129 16.7911C17.0966 17.0436 17.2274 17.2651 17.4021 17.4471C17.5764 17.6306 17.7992 17.7729 18.0647 17.8702C18.3284 17.9669 18.6474 18.014 19.013 18.0069C19.7653 17.9911 20.1587 17.8164 20.3204 17.7231C20.349 17.7068 20.3759 17.678 20.34 17.5979L20.1621 17.1234C20.1345 17.0526 20.0627 17.0803 20.0627 17.0803C19.8776 17.1527 19.6153 17.2817 18.9961 17.2912C18.5927 17.2976 18.291 17.1835 18.1002 17.0004C17.9041 16.8129 17.805 16.534 17.7815 16.1381L20.3868 16.0951C20.3868 16.0951 20.4553 16.0927 20.4612 16.0259C20.4633 15.9977 20.5414 15.4885 20.3635 14.904ZM12.1809 17.3C12.0775 17.2206 12.0631 17.2002 12.0277 17.1482C11.975 17.0691 11.9468 16.9554 11.9443 16.8106C11.9403 16.5813 12.013 16.4153 12.1678 16.3017C12.1661 16.3023 12.3885 16.1022 12.9203 16.1C13.2935 16.0987 13.6281 16.148 13.6281 16.148L13.6487 17.3335L13.6494 17.3335C13.6494 17.3335 13.3196 17.4104 12.9474 17.4392C12.4177 17.4805 12.1789 17.2995 12.1809 17.3ZM13.1855 15.45C13.0797 15.4441 12.9427 15.4419 12.7788 15.4447C12.5552 15.4486 12.3399 15.4806 12.1387 15.5386C11.9444 15.5927 11.7615 15.6815 11.5988 15.8007C11.4434 15.9158 11.3167 16.0651 11.2284 16.2372C11.1393 16.4107 11.0961 16.6139 11.1001 16.8407C11.1041 17.0714 11.1471 17.2713 11.2294 17.434C11.3097 17.5949 11.4291 17.733 11.5766 17.8356C11.7231 17.9388 11.9032 18.0133 12.1114 18.0564C12.3165 18.0997 12.5485 18.1192 12.8022 18.1148C13.0693 18.1101 13.3352 18.0838 13.5924 18.035C13.8113 17.9933 14.0294 17.9472 14.2465 17.8967C14.3326 17.8746 14.4283 17.8467 14.4283 17.8467C14.4927 17.8296 14.4862 17.7604 14.4862 17.7604L14.4433 15.3761C14.4342 14.8531 14.2879 14.4679 14.009 14.2324C13.7315 13.9974 13.3266 13.8835 12.806 13.8925C12.6109 13.8959 12.2968 13.9283 12.1094 13.9695C12.1094 13.9695 11.5418 14.0895 11.3108 14.2769C11.3108 14.2769 11.2602 14.3098 11.2896 14.3811L11.4828 14.8739C11.5067 14.9375 11.5686 14.9146 11.5686 14.9146C11.5686 14.9146 11.5883 14.9067 11.6111 14.8928C12.1076 14.611 12.7417 14.6084 12.7417 14.6084C13.0234 14.6035 13.2407 14.656 13.3887 14.7657C13.5328 14.8721 13.6079 15.0354 13.614 15.3828L13.6159 15.4929C13.3913 15.4648 13.1855 15.45 13.1855 15.45ZM34.1752 13.7395C34.1789 13.7307 34.1807 13.7213 34.1805 13.7118C34.1804 13.7024 34.1784 13.693 34.1746 13.6843C34.1708 13.6757 34.1653 13.6678 34.1584 13.6614C34.1515 13.6549 34.1433 13.6498 34.1344 13.6466C34.09 13.6301 33.8676 13.5872 33.6964 13.5793C33.3689 13.5651 33.188 13.6233 33.0267 13.6994C32.8666 13.7752 32.6894 13.8961 32.5917 14.0319L32.5862 13.7146C32.5854 13.6705 32.5535 13.6358 32.51 13.6366L31.8421 13.6482C31.7987 13.649 31.7678 13.6847 31.7686 13.7289L31.8365 17.618C31.8372 17.6616 31.8737 17.6969 31.9173 17.6961L32.6017 17.6842C32.6121 17.684 32.6223 17.6817 32.6318 17.6775C32.6413 17.6733 32.6499 17.6673 32.6571 17.6598C32.6643 17.6523 32.6699 17.6434 32.6737 17.6337C32.6775 17.624 32.6793 17.6137 32.679 17.6033L32.6451 15.6603C32.6406 15.3996 32.6649 15.1388 32.7197 14.9746C32.7731 14.8119 32.8478 14.6813 32.9409 14.5866C33.0299 14.4958 33.1391 14.4276 33.2597 14.3875C33.38 14.3483 33.5137 14.3338 33.6084 14.3321C33.7448 14.3297 33.8952 14.3623 33.8952 14.3623C33.9452 14.3672 33.9729 14.336 33.9888 14.2903C34.0314 14.1703 34.1521 13.811 34.1751 13.7395" fill="white"/>
<path d="M27.719 12.0491C27.634 12.025 27.5477 12.0059 27.4604 11.992C27.3431 11.9749 27.2245 11.968 27.106 11.9715C26.6346 11.9797 26.2656 12.1193 26.0097 12.3867C25.7548 12.6526 25.5857 13.0537 25.5066 13.5787L25.4775 13.7555L24.8859 13.7659C24.8859 13.7659 24.8142 13.7645 24.8002 13.843L24.7131 14.3875C24.7069 14.4388 24.7298 14.4712 24.7989 14.47L25.3747 14.4599L24.8476 17.733C24.8068 17.9966 24.758 18.2135 24.7025 18.3785C24.6484 18.541 24.595 18.6631 24.5273 18.7528C24.462 18.8384 24.4005 18.9025 24.2922 18.9408C24.2031 18.9726 24.0996 18.9885 23.9863 18.9905C23.9235 18.9916 23.8395 18.9827 23.7772 18.9711C23.7284 18.9624 23.6808 18.9479 23.6355 18.9278C23.6355 18.9278 23.5679 18.9035 23.5422 18.9713C23.5221 19.0274 23.3757 19.4523 23.3581 19.5047C23.3411 19.5569 23.3673 19.5967 23.4002 19.6083C23.4775 19.6338 23.5347 19.6508 23.6395 19.6739C23.785 19.7055 23.9073 19.7052 24.0219 19.7032C24.2613 19.699 24.4797 19.6612 24.6597 19.5928C24.8405 19.5237 24.9972 19.406 25.1355 19.2484C25.2842 19.078 25.3766 18.9008 25.4632 18.6589C25.5494 18.4202 25.6218 18.124 25.6771 17.7796L26.2063 14.4454L27.0644 14.4304C27.0644 14.4304 27.1366 14.4316 27.15 14.3526L27.2379 13.8087C27.2433 13.7567 27.2212 13.7251 27.1512 13.7263L26.3181 13.7409C26.3224 13.7221 26.3551 13.4281 26.4457 13.1503C26.4846 13.0322 26.5597 12.9354 26.6232 12.869C26.6831 12.8058 26.7572 12.7579 26.8393 12.7292C26.9215 12.7008 27.0153 12.6864 27.1184 12.6846C27.1965 12.6832 27.2741 12.6908 27.3325 12.7019C27.4137 12.7179 27.4451 12.7264 27.4663 12.7323C27.552 12.7565 27.563 12.7313 27.579 12.6899L27.7686 12.1394C27.7881 12.0801 27.737 12.0558 27.719 12.0491ZM16.1786 17.8916C16.1794 17.935 16.1485 17.9709 16.1051 17.9717L15.4142 17.9837C15.3706 17.9845 15.3393 17.9499 15.3385 17.9062L15.2414 12.3413C15.2406 12.2979 15.2707 12.262 15.3143 12.2612L16.0051 12.2492C16.0486 12.2484 16.0807 12.283 16.0815 12.3267L16.1786 17.8916Z" fill="white"/>
</g>
<defs>
<clipPath id="clip0_107_752">
<rect width="45" height="31.6667" fill="white" transform="translate(0.714844 1.4126) rotate(-1)"/>
</clipPath>
</defs>
</svg>
