<svg width="18" height="18" viewBox="0 0 18 18" fill="none" xmlns="http://www.w3.org/2000/svg">
<path d="M17.0789 9.69936C17.1133 9.38764 17.1352 9.07154 17.1352 8.74998C17.1352 8.42842 17.1133 8.11232 17.0783 7.80006L14.6841 6.94857C14.5649 6.55701 14.4085 6.18295 14.2193 5.82748L15.3087 3.53498C14.9122 3.03779 14.4613 2.58654 13.9644 2.18967L11.6719 3.28123C11.3146 3.08943 10.939 2.93371 10.5508 2.81639L9.6999 0.422168C9.38764 0.387168 9.07154 0.364746 8.74998 0.364746C8.42842 0.364746 8.11232 0.386621 7.80006 0.422168L6.94912 2.81639C6.55756 2.93506 6.1835 3.09092 5.82803 3.28123L3.53498 2.18967C3.03732 2.58615 2.5867 3.03732 2.18967 3.53498L3.28123 5.82639C3.09092 6.18186 2.93506 6.55647 2.81639 6.94748L0.422168 7.80061C0.387168 8.11232 0.364746 8.42951 0.364746 8.75053C0.364746 9.07154 0.386621 9.38764 0.422168 9.6999L2.81639 10.5519C2.93506 10.9429 3.09092 11.3176 3.28123 11.673L2.19021 13.9655C2.5867 14.4632 3.03787 14.9133 3.53553 15.3097L5.82639 14.2187C6.18186 14.409 6.55646 14.5654 6.94748 14.6847L7.79951 17.0783C8.11123 17.1128 8.42732 17.1347 8.74943 17.1347C9.071 17.1347 9.38654 17.1128 9.69881 17.0778L10.5508 14.6836C10.9419 14.5644 11.3165 14.4079 11.6719 14.2187L13.9644 15.3081C14.4621 14.9116 14.9122 14.4604 15.3087 13.9639L14.2187 11.6719C14.409 11.3181 14.5654 10.9424 14.6847 10.5508L17.0789 9.69936ZM8.74998 11.4133C8.40016 11.4133 8.05375 11.3445 7.73054 11.2107C7.40732 11.0769 7.11362 10.8807 6.86621 10.6334C6.36654 10.134 6.08575 9.45647 6.08561 8.74998C6.08546 8.04349 6.36597 7.36588 6.86544 6.86621C7.3649 6.36654 8.0424 6.08575 8.74889 6.08561C9.45538 6.08546 10.133 6.36597 10.6327 6.86544C11.1323 7.3649 11.4131 8.0424 11.4133 8.74889C11.4134 9.45538 11.1329 10.133 10.6334 10.6327C10.134 11.1323 9.45647 11.4131 8.74998 11.4133Z" fill="#B9B9B9"/>
</svg>
