<svg width="21" height="5" viewBox="0 0 21 5" fill="none" xmlns="http://www.w3.org/2000/svg">
<path d="M4.3125 2.5011C4.3125 2.90902 4.19154 3.30779 3.96491 3.64696C3.73828 3.98614 3.41616 4.25049 3.03929 4.4066C2.66241 4.56271 2.24771 4.60355 1.84763 4.52397C1.44754 4.44439 1.08004 4.24795 0.791593 3.95951C0.503147 3.67106 0.306713 3.30356 0.227131 2.90347C0.147549 2.50339 0.188394 2.08869 0.344499 1.71181C0.500605 1.33494 0.764961 1.01282 1.10414 0.786193C1.44331 0.559562 1.84208 0.438599 2.25 0.438599C2.79701 0.438599 3.32161 0.655898 3.70841 1.04269C4.0952 1.42949 4.3125 1.95409 4.3125 2.5011ZM18.75 0.438599C18.3421 0.438599 17.9433 0.559562 17.6041 0.786193C17.265 1.01282 17.0006 1.33494 16.8445 1.71181C16.6884 2.08869 16.6476 2.50339 16.7271 2.90347C16.8067 3.30356 17.0031 3.67106 17.2916 3.95951C17.58 4.24795 17.9475 4.44439 18.3476 4.52397C18.7477 4.60355 19.1624 4.56271 19.5393 4.4066C19.9162 4.25049 20.2383 3.98614 20.4649 3.64696C20.6915 3.30779 20.8125 2.90902 20.8125 2.5011C20.8125 1.95409 20.5952 1.42949 20.2084 1.04269C19.8216 0.655898 19.297 0.438599 18.75 0.438599ZM10.5 0.438599C10.0921 0.438599 9.69331 0.559562 9.35414 0.786193C9.01496 1.01282 8.7506 1.33494 8.5945 1.71181C8.43839 2.08869 8.39755 2.50339 8.47713 2.90347C8.55671 3.30356 8.75315 3.67106 9.04159 3.95951C9.33004 4.24795 9.69754 4.44439 10.0976 4.52397C10.4977 4.60355 10.9124 4.56271 11.2893 4.4066C11.6662 4.25049 11.9883 3.98614 12.2149 3.64696C12.4415 3.30779 12.5625 2.90902 12.5625 2.5011C12.5625 1.95409 12.3452 1.42949 11.9584 1.04269C11.5716 0.655898 11.047 0.438599 10.5 0.438599Z" fill="#B9B9B9"/>
</svg>
