<svg width="28" height="28" viewBox="0 0 28 28" fill="none" xmlns="http://www.w3.org/2000/svg">
<g clip-path="url(#clip0_107_822)">
<path d="M0 7.04592V10.1111H4.37733L0 7.04592ZM3.62756 24.1111H10.1111V19.5712L3.62756 24.1111ZM17.8889 19.572V24.1111H24.3717L17.8889 19.572ZM0 17.8889V20.9541L4.37889 17.8889H0ZM24.3732 3.88892H17.8889V8.4288L24.3732 3.88892ZM28 20.9549V17.8889H23.6203L28 20.9549ZM28 10.1111V7.04592L23.6219 10.1111H28ZM10.1111 3.88892H3.62756L10.1111 8.4288V3.88892Z" fill="#00247D"/>
<path d="M19.5533 17.8889L27.1071 23.1786C27.476 22.7985 27.7411 22.3301 27.8771 21.8182L22.2654 17.8889H19.5533ZM10.1111 17.8889H8.44585L0.892848 23.1778C1.29807 23.59 1.81763 23.8848 2.40018 24.0217L10.1111 18.6223V17.8889ZM17.8888 10.1111H19.5541L27.1071 4.82222C26.6949 4.40399 26.1725 4.11135 25.6005 3.97833L17.8888 9.37767V10.1111ZM8.44585 10.1111L0.892848 4.82222C0.524145 5.20253 0.258815 5.67081 0.12207 6.18255L5.73374 10.1111H8.44585Z" fill="#CF1B2B"/>
<path d="M28 16.3334H16.3333V24.1111H17.8889V19.572L24.3717 24.1111H24.8889C25.3021 24.1112 25.7112 24.0287 26.0921 23.8686C26.473 23.7085 26.8181 23.4739 27.1071 23.1786L19.5533 17.8889H22.2654L27.8771 21.8182C27.9494 21.5561 28 21.2847 28 21V20.9549L23.6203 17.8889H28V16.3334ZM0 16.3334V17.8889H4.37889L0 20.9541V21C0 21.8486 0.341444 22.6162 0.892889 23.1778L8.44589 17.8889H10.1111V18.6224L2.40022 24.0209C2.62889 24.0754 2.86533 24.1111 3.11111 24.1111H3.62756L10.1111 19.5712V24.1111H11.6667V16.3334H0ZM28 7.00003C28.0005 6.1849 27.6797 5.40244 27.1071 4.82225L19.5541 10.1111H17.8889V9.37769L25.6006 3.97836C25.3676 3.92122 25.1288 3.8912 24.8889 3.88892H24.3732L17.8889 8.42881V3.88892H16.3333V11.6667H28V10.1111H23.6219L28 7.04592V7.00003ZM10.1111 3.88892V8.42881L3.62756 3.88892H3.11111C2.69782 3.88874 2.28866 3.97122 1.90772 4.1315C1.52677 4.29179 1.18173 4.52664 0.892889 4.82225L8.44589 10.1111H5.73378L0.122111 6.18258C0.0449401 6.44836 0.00386821 6.7233 0 7.00003L0 7.04592L4.37733 10.1111H0V11.6667H11.6667V3.88892H10.1111Z" fill="#EEEEEE"/>
<path d="M16.3333 11.6667V3.88892H11.6667V11.6667H0V16.3334H11.6667V24.1111H16.3333V16.3334H28V11.6667H16.3333Z" fill="#CF1B2B"/>
</g>
<defs>
<clipPath id="clip0_107_822">
<rect width="28" height="28" fill="white"/>
</clipPath>
</defs>
</svg>
