<svg width="31" height="23" viewBox="0 0 31 23" fill="none" xmlns="http://www.w3.org/2000/svg">
<g clip-path="url(#clip0_107_761)">
<path d="M0.661592 15.3145C0.660865 17.9191 1.34674 20.4623 2.65092 22.7039L0.536865 30.3628L8.43605 28.3077C10.6209 29.4878 13.0688 30.1062 15.5564 30.1064H15.5629C23.7749 30.1064 30.4596 23.4759 30.4631 15.3261C30.4647 11.377 28.9162 7.66347 26.1027 4.86963C23.2897 2.07602 19.5485 0.536714 15.5623 0.534912C7.34936 0.534912 0.665104 7.16507 0.661713 15.3145" fill="url(#paint0_linear_107_761)"/>
<path d="M0.12957 15.3097C0.128723 18.008 0.83918 20.6422 2.18986 22.964L0 30.8975L8.18243 28.7687C10.4369 29.9884 12.9753 30.6315 15.5582 30.6324H15.5649C24.0715 30.6324 30.9964 23.7634 31 15.3219C31.0015 11.2309 29.3972 7.38389 26.4832 4.48995C23.5688 1.59638 19.6938 0.00168217 15.5649 0C7.05686 0 0.132961 6.86806 0.12957 15.3097ZM5.00238 22.5642L4.69686 22.0829C3.41254 20.0566 2.73466 17.7151 2.73563 15.3106C2.73841 8.29418 8.49327 2.58574 15.5698 2.58574C18.9967 2.58718 22.2173 3.91273 24.6397 6.31775C27.0619 8.72302 28.3948 11.9203 28.3939 15.321C28.3908 22.3374 22.6358 28.0466 15.5649 28.0466H15.5598C13.2575 28.0454 10.9994 27.4319 9.0302 26.2725L8.56157 25.9967L3.70595 27.2599L5.00238 22.564V22.5642Z" fill="url(#paint1_linear_107_761)"/>
<path d="M11.7071 8.90925C11.4182 8.27207 11.1141 8.25921 10.8394 8.24804C10.6144 8.23843 10.3572 8.23915 10.1002 8.23915C9.843 8.23915 9.42511 8.33515 9.07188 8.71785C8.71828 9.1009 7.72192 10.0266 7.72192 11.9093C7.72192 13.7921 9.10397 15.6116 9.29663 15.8672C9.48953 16.1223 11.9647 20.1095 15.8847 21.6434C19.1426 22.9181 19.8056 22.6646 20.5127 22.6007C21.2199 22.537 22.7946 21.6752 23.1158 20.7817C23.4373 19.8882 23.4374 19.1223 23.341 18.9623C23.2446 18.8028 22.9874 18.7071 22.6017 18.5158C22.2159 18.3244 20.3198 17.3986 19.9663 17.2708C19.6127 17.1432 19.3556 17.0796 19.0984 17.4627C18.8412 17.8453 18.1027 18.7071 17.8776 18.9623C17.6527 19.2181 17.4276 19.2499 17.042 19.0585C16.6561 18.8665 15.414 18.4629 13.9405 17.1593C12.7939 16.145 12.0199 14.8924 11.7949 14.5092C11.5699 14.1266 11.7708 13.9192 11.9642 13.7286C12.1375 13.5571 12.35 13.2817 12.543 13.0583C12.7353 12.8348 12.7995 12.6754 12.9281 12.4202C13.0568 12.1647 12.9924 11.9412 12.8961 11.7498C12.7995 11.5584 12.0501 9.66587 11.7071 8.90925Z" fill="white"/>
</g>
<defs>
<linearGradient id="paint0_linear_107_761" x1="15.5" y1="30.3628" x2="15.5" y2="0.534912" gradientUnits="userSpaceOnUse">
<stop stop-color="#1FAF38"/>
<stop offset="1" stop-color="#60D669"/>
</linearGradient>
<linearGradient id="paint1_linear_107_761" x1="15.5" y1="30.8975" x2="15.5" y2="0" gradientUnits="userSpaceOnUse">
<stop stop-color="#F9F9F9"/>
<stop offset="1" stop-color="white"/>
</linearGradient>
<clipPath id="clip0_107_761">
<rect width="31" height="31" fill="white"/>
</clipPath>
</defs>
</svg>
